<mxfile host="app.diagrams.net" modified="2023-11-08T11:34:04.699Z" agent="Mozilla/5.0 (X11; Linux x86_64) AppleWebKit/537.36 (KHTML, like Gecko) Chrome/118.0.0.0 Safari/537.36" etag="ihNi-eC8JCaW2edkU8ny" version="22.0.8" type="device">
  <diagram name="Sida-1" id="RtuxImT8XKiiwJZPzf85">
    <mxGraphModel dx="2501" dy="820" grid="1" gridSize="10" guides="1" tooltips="1" connect="1" arrows="1" fold="1" page="1" pageScale="1" pageWidth="827" pageHeight="1169" math="0" shadow="0">
      <root>
        <mxCell id="0" />
        <mxCell id="1" parent="0" />
        <mxCell id="IL5D-cO0ejNmLXXA79S_-1" value="&amp;lt;&amp;lt;subsystem&amp;gt;&amp;gt;&amp;nbsp; Server" style="swimlane;whiteSpace=wrap;html=1;fillColor=#7EA6E0;" parent="1" vertex="1">
          <mxGeometry x="-100" y="320" width="410" height="280" as="geometry" />
        </mxCell>
        <mxCell id="IL5D-cO0ejNmLXXA79S_-2" value="&amp;lt;&amp;lt;component&amp;gt;&amp;gt;&lt;br&gt;&lt;br&gt;Databas" style="whiteSpace=wrap;html=1;" parent="IL5D-cO0ejNmLXXA79S_-1" vertex="1">
          <mxGeometry x="240" y="40" width="120" height="70" as="geometry" />
        </mxCell>
        <mxCell id="IL5D-cO0ejNmLXXA79S_-77" style="edgeStyle=orthogonalEdgeStyle;rounded=0;orthogonalLoop=1;jettySize=auto;html=1;dashed=1;" parent="IL5D-cO0ejNmLXXA79S_-1" source="IL5D-cO0ejNmLXXA79S_-3" target="IL5D-cO0ejNmLXXA79S_-2" edge="1">
          <mxGeometry relative="1" as="geometry" />
        </mxCell>
        <mxCell id="IL5D-cO0ejNmLXXA79S_-3" value="&amp;lt;&amp;lt;component&amp;gt;&amp;gt;&lt;br&gt;&lt;br&gt;Backendservice / REST API" style="whiteSpace=wrap;html=1;" parent="IL5D-cO0ejNmLXXA79S_-1" vertex="1">
          <mxGeometry x="240" y="185" width="120" height="80" as="geometry" />
        </mxCell>
        <mxCell id="IL5D-cO0ejNmLXXA79S_-37" value="" style="line;strokeWidth=1;fillColor=none;align=left;verticalAlign=middle;spacingTop=-1;spacingLeft=3;spacingRight=3;rotatable=0;labelPosition=right;points=[];portConstraint=eastwest;strokeColor=inherit;" parent="IL5D-cO0ejNmLXXA79S_-1" vertex="1">
          <mxGeometry x="360" y="221" width="100" height="8" as="geometry" />
        </mxCell>
        <mxCell id="IL5D-cO0ejNmLXXA79S_-64" style="edgeStyle=orthogonalEdgeStyle;rounded=0;orthogonalLoop=1;jettySize=auto;html=1;entryX=0;entryY=0.5;entryDx=0;entryDy=0;dashed=1;" parent="IL5D-cO0ejNmLXXA79S_-1" target="IL5D-cO0ejNmLXXA79S_-2" edge="1">
          <mxGeometry relative="1" as="geometry">
            <mxPoint x="120" y="120" as="sourcePoint" />
            <mxPoint x="230" y="75" as="targetPoint" />
            <Array as="points">
              <mxPoint x="120" y="80" />
              <mxPoint x="230" y="80" />
              <mxPoint x="230" y="75" />
            </Array>
          </mxGeometry>
        </mxCell>
        <mxCell id="IL5D-cO0ejNmLXXA79S_-74" style="edgeStyle=orthogonalEdgeStyle;rounded=0;orthogonalLoop=1;jettySize=auto;html=1;entryX=0;entryY=0.5;entryDx=0;entryDy=0;endArrow=none;endFill=0;exitX=1;exitY=0.5;exitDx=0;exitDy=0;exitPerimeter=0;" parent="IL5D-cO0ejNmLXXA79S_-1" source="IL5D-cO0ejNmLXXA79S_-75" target="IL5D-cO0ejNmLXXA79S_-3" edge="1">
          <mxGeometry relative="1" as="geometry">
            <Array as="points" />
          </mxGeometry>
        </mxCell>
        <mxCell id="IL5D-cO0ejNmLXXA79S_-62" value="&amp;lt;&amp;lt;component&amp;gt;&amp;gt;&lt;br&gt;&lt;br&gt;Autentisering" style="whiteSpace=wrap;html=1;" parent="IL5D-cO0ejNmLXXA79S_-1" vertex="1">
          <mxGeometry x="70" y="120" width="120" height="70" as="geometry" />
        </mxCell>
        <mxCell id="IL5D-cO0ejNmLXXA79S_-69" style="edgeStyle=orthogonalEdgeStyle;rounded=0;orthogonalLoop=1;jettySize=auto;html=1;endArrow=none;endFill=0;" parent="IL5D-cO0ejNmLXXA79S_-1" edge="1">
          <mxGeometry relative="1" as="geometry">
            <mxPoint y="160" as="sourcePoint" />
            <mxPoint x="70" y="160" as="targetPoint" />
          </mxGeometry>
        </mxCell>
        <mxCell id="IL5D-cO0ejNmLXXA79S_-75" value="" style="shape=providedRequiredInterface;html=1;verticalLabelPosition=bottom;sketch=0;" parent="IL5D-cO0ejNmLXXA79S_-1" vertex="1">
          <mxGeometry x="170" y="215" width="20" height="20" as="geometry" />
        </mxCell>
        <mxCell id="IL5D-cO0ejNmLXXA79S_-76" value="" style="edgeStyle=orthogonalEdgeStyle;rounded=0;orthogonalLoop=1;jettySize=auto;html=1;entryX=0;entryY=0.5;entryDx=0;entryDy=0;endArrow=none;endFill=0;" parent="IL5D-cO0ejNmLXXA79S_-1" source="IL5D-cO0ejNmLXXA79S_-62" target="IL5D-cO0ejNmLXXA79S_-75" edge="1">
          <mxGeometry relative="1" as="geometry">
            <mxPoint x="-30" y="510" as="sourcePoint" />
            <mxPoint x="80" y="545" as="targetPoint" />
            <Array as="points" />
          </mxGeometry>
        </mxCell>
        <mxCell id="IL5D-cO0ejNmLXXA79S_-4" value="&amp;lt;&amp;lt;subsystem&amp;gt;&amp;gt;&amp;nbsp; UI" style="swimlane;whiteSpace=wrap;html=1;fillColor=#7EA6E0;" parent="1" vertex="1">
          <mxGeometry x="470" y="80" width="220" height="200" as="geometry" />
        </mxCell>
        <mxCell id="IL5D-cO0ejNmLXXA79S_-5" value="&amp;lt;&amp;lt;component&amp;gt;&amp;gt;&lt;br&gt;&lt;br&gt;Administrativt webbgränssnitt" style="whiteSpace=wrap;html=1;" parent="IL5D-cO0ejNmLXXA79S_-4" vertex="1">
          <mxGeometry x="50" y="40" width="120" height="60" as="geometry" />
        </mxCell>
        <mxCell id="IL5D-cO0ejNmLXXA79S_-6" value="&amp;lt;&amp;lt;component&amp;gt;&amp;gt;&lt;br&gt;&lt;br&gt;Kundens webbgränssnitt" style="whiteSpace=wrap;html=1;" parent="IL5D-cO0ejNmLXXA79S_-4" vertex="1">
          <mxGeometry x="50" y="120" width="120" height="60" as="geometry" />
        </mxCell>
        <mxCell id="IL5D-cO0ejNmLXXA79S_-80" value="" style="verticalLabelPosition=bottom;verticalAlign=top;html=1;shape=mxgraph.basic.rect;fillColor2=none;strokeWidth=1;size=0;indent=5;" parent="IL5D-cO0ejNmLXXA79S_-4" vertex="1">
          <mxGeometry x="-20" y="100" width="30" height="30" as="geometry" />
        </mxCell>
        <mxCell id="IL5D-cO0ejNmLXXA79S_-81" style="edgeStyle=orthogonalEdgeStyle;rounded=0;orthogonalLoop=1;jettySize=auto;html=1;entryX=1.167;entryY=0.5;entryDx=0;entryDy=0;entryPerimeter=0;endArrow=none;endFill=0;" parent="IL5D-cO0ejNmLXXA79S_-4" source="IL5D-cO0ejNmLXXA79S_-5" target="IL5D-cO0ejNmLXXA79S_-80" edge="1">
          <mxGeometry relative="1" as="geometry" />
        </mxCell>
        <mxCell id="IL5D-cO0ejNmLXXA79S_-82" style="edgeStyle=orthogonalEdgeStyle;rounded=0;orthogonalLoop=1;jettySize=auto;html=1;entryX=1;entryY=0.533;entryDx=0;entryDy=0;entryPerimeter=0;endArrow=none;endFill=0;" parent="IL5D-cO0ejNmLXXA79S_-4" source="IL5D-cO0ejNmLXXA79S_-6" target="IL5D-cO0ejNmLXXA79S_-80" edge="1">
          <mxGeometry relative="1" as="geometry">
            <Array as="points">
              <mxPoint x="30" y="150" />
              <mxPoint x="30" y="116" />
            </Array>
          </mxGeometry>
        </mxCell>
        <mxCell id="IL5D-cO0ejNmLXXA79S_-7" value="&amp;lt;&amp;lt;subsystem&amp;gt;&amp;gt;&amp;nbsp; UI" style="swimlane;whiteSpace=wrap;html=1;fillColor=#7EA6E0;" parent="1" vertex="1">
          <mxGeometry x="470" y="360" width="220" height="120" as="geometry" />
        </mxCell>
        <mxCell id="IL5D-cO0ejNmLXXA79S_-8" value="&amp;lt;&amp;lt;component&amp;gt;&amp;gt;&lt;br&gt;&lt;br&gt;Mobilapplikation för kund" style="whiteSpace=wrap;html=1;" parent="IL5D-cO0ejNmLXXA79S_-7" vertex="1">
          <mxGeometry x="50" y="40" width="130" height="60" as="geometry" />
        </mxCell>
        <mxCell id="IL5D-cO0ejNmLXXA79S_-40" value="" style="line;strokeWidth=1;fillColor=none;align=left;verticalAlign=middle;spacingTop=-1;spacingLeft=3;spacingRight=3;rotatable=0;labelPosition=right;points=[];portConstraint=eastwest;strokeColor=inherit;" parent="IL5D-cO0ejNmLXXA79S_-7" vertex="1">
          <mxGeometry y="66" width="50" height="8" as="geometry" />
        </mxCell>
        <mxCell id="IL5D-cO0ejNmLXXA79S_-78" value="" style="shape=ext;double=1;whiteSpace=wrap;html=1;aspect=fixed;" parent="IL5D-cO0ejNmLXXA79S_-7" vertex="1">
          <mxGeometry x="-10" y="55" width="30" height="30" as="geometry" />
        </mxCell>
        <mxCell id="IL5D-cO0ejNmLXXA79S_-10" value="&amp;lt;&amp;lt;subsystem&amp;gt;&amp;gt;&amp;nbsp; Cykelsystem" style="swimlane;whiteSpace=wrap;html=1;fillColor=#7EA6E0;" parent="1" vertex="1">
          <mxGeometry x="470" y="560" width="220" height="120" as="geometry" />
        </mxCell>
        <mxCell id="IL5D-cO0ejNmLXXA79S_-11" value="&amp;lt;&amp;lt;component&amp;gt;&amp;gt;&lt;br&gt;&lt;br&gt;Cykelns program" style="whiteSpace=wrap;html=1;" parent="IL5D-cO0ejNmLXXA79S_-10" vertex="1">
          <mxGeometry x="50" y="40" width="120" height="60" as="geometry" />
        </mxCell>
        <mxCell id="IL5D-cO0ejNmLXXA79S_-41" value="" style="line;strokeWidth=1;fillColor=none;align=left;verticalAlign=middle;spacingTop=-1;spacingLeft=3;spacingRight=3;rotatable=0;labelPosition=right;points=[];portConstraint=eastwest;strokeColor=inherit;" parent="IL5D-cO0ejNmLXXA79S_-10" vertex="1">
          <mxGeometry y="66" width="50" height="8" as="geometry" />
        </mxCell>
        <mxCell id="IL5D-cO0ejNmLXXA79S_-79" value="" style="verticalLabelPosition=bottom;verticalAlign=top;html=1;shape=mxgraph.basic.rect;fillColor2=none;strokeWidth=1;size=20;indent=5;" parent="IL5D-cO0ejNmLXXA79S_-10" vertex="1">
          <mxGeometry x="-10" y="55" width="30" height="30" as="geometry" />
        </mxCell>
        <mxCell id="IL5D-cO0ejNmLXXA79S_-48" style="edgeStyle=orthogonalEdgeStyle;rounded=0;orthogonalLoop=1;jettySize=auto;html=1;endArrow=none;endFill=0;entryX=1;entryY=0.5;entryDx=0;entryDy=0;" parent="1" source="IL5D-cO0ejNmLXXA79S_-49" target="IL5D-cO0ejNmLXXA79S_-73" edge="1">
          <mxGeometry relative="1" as="geometry">
            <mxPoint x="310" y="550" as="targetPoint" />
          </mxGeometry>
        </mxCell>
        <mxCell id="IL5D-cO0ejNmLXXA79S_-50" value="" style="edgeStyle=orthogonalEdgeStyle;rounded=0;orthogonalLoop=1;jettySize=auto;html=1;entryX=1.05;entryY=0.6;entryDx=0;entryDy=0;entryPerimeter=0;endArrow=none;endFill=0;" parent="1" target="IL5D-cO0ejNmLXXA79S_-49" edge="1">
          <mxGeometry relative="1" as="geometry">
            <mxPoint x="460" y="430" as="sourcePoint" />
            <mxPoint x="321" y="552" as="targetPoint" />
            <Array as="points">
              <mxPoint x="430" y="430" />
              <mxPoint x="430" y="478" />
            </Array>
          </mxGeometry>
        </mxCell>
        <mxCell id="IL5D-cO0ejNmLXXA79S_-49" value="" style="shape=providedRequiredInterface;html=1;verticalLabelPosition=bottom;sketch=0;direction=east;" parent="1" vertex="1">
          <mxGeometry x="390" y="470" width="20" height="20" as="geometry" />
        </mxCell>
        <mxCell id="IL5D-cO0ejNmLXXA79S_-51" value="&lt;font style=&quot;font-size: 12px; font-weight: normal;&quot;&gt;Hantera uthyrning av cyklar&lt;/font&gt;" style="text;strokeColor=none;fillColor=none;html=1;fontSize=24;fontStyle=1;verticalAlign=middle;align=center;" parent="1" vertex="1">
          <mxGeometry x="370" y="480" width="140" height="40" as="geometry" />
        </mxCell>
        <mxCell id="IL5D-cO0ejNmLXXA79S_-59" value="Login" style="text;align=center;fontStyle=1;verticalAlign=middle;spacingLeft=3;spacingRight=3;strokeColor=none;rotatable=0;points=[[0,0.5],[1,0.5]];portConstraint=eastwest;html=1;" parent="1" vertex="1">
          <mxGeometry x="-190" y="444" width="80" height="26" as="geometry" />
        </mxCell>
        <mxCell id="IL5D-cO0ejNmLXXA79S_-68" style="edgeStyle=orthogonalEdgeStyle;rounded=0;orthogonalLoop=1;jettySize=auto;html=1;endArrow=none;endFill=0;" parent="1" source="IL5D-cO0ejNmLXXA79S_-65" edge="1">
          <mxGeometry relative="1" as="geometry">
            <mxPoint x="-160" y="480" as="targetPoint" />
            <Array as="points">
              <mxPoint x="-160" y="480" />
              <mxPoint x="-160" y="480" />
            </Array>
          </mxGeometry>
        </mxCell>
        <mxCell id="IL5D-cO0ejNmLXXA79S_-98" style="edgeStyle=orthogonalEdgeStyle;rounded=0;orthogonalLoop=1;jettySize=auto;html=1;endArrow=none;endFill=0;" parent="1" source="IL5D-cO0ejNmLXXA79S_-65" edge="1">
          <mxGeometry relative="1" as="geometry">
            <mxPoint x="-100" y="480" as="targetPoint" />
          </mxGeometry>
        </mxCell>
        <mxCell id="IL5D-cO0ejNmLXXA79S_-65" value="" style="ellipse;whiteSpace=wrap;html=1;aspect=fixed;" parent="1" vertex="1">
          <mxGeometry x="-160" y="470" width="20" height="20" as="geometry" />
        </mxCell>
        <mxCell id="IL5D-cO0ejNmLXXA79S_-73" value="" style="shape=ext;double=1;whiteSpace=wrap;html=1;aspect=fixed;" parent="1" vertex="1">
          <mxGeometry x="300" y="530" width="30" height="30" as="geometry" />
        </mxCell>
        <mxCell id="IL5D-cO0ejNmLXXA79S_-83" style="edgeStyle=orthogonalEdgeStyle;rounded=0;orthogonalLoop=1;jettySize=auto;html=1;entryX=0;entryY=0.5;entryDx=0;entryDy=0;entryPerimeter=0;endArrow=none;endFill=0;exitX=1;exitY=0.5;exitDx=0;exitDy=0;" parent="1" source="IL5D-cO0ejNmLXXA79S_-84" target="IL5D-cO0ejNmLXXA79S_-80" edge="1">
          <mxGeometry relative="1" as="geometry">
            <Array as="points">
              <mxPoint x="360" y="195" />
            </Array>
          </mxGeometry>
        </mxCell>
        <mxCell id="IL5D-cO0ejNmLXXA79S_-85" value="" style="edgeStyle=orthogonalEdgeStyle;rounded=0;orthogonalLoop=1;jettySize=auto;html=1;entryX=0;entryY=0.5;entryDx=0;entryDy=0;entryPerimeter=0;endArrow=none;endFill=0;exitX=1;exitY=0.5;exitDx=0;exitDy=0;" parent="1" source="IL5D-cO0ejNmLXXA79S_-73" target="IL5D-cO0ejNmLXXA79S_-84" edge="1">
          <mxGeometry relative="1" as="geometry">
            <mxPoint x="330" y="545" as="sourcePoint" />
            <mxPoint x="450" y="195" as="targetPoint" />
            <Array as="points">
              <mxPoint x="360" y="545" />
            </Array>
          </mxGeometry>
        </mxCell>
        <mxCell id="IL5D-cO0ejNmLXXA79S_-84" value="" style="shape=providedRequiredInterface;html=1;verticalLabelPosition=bottom;sketch=0;direction=north;" parent="1" vertex="1">
          <mxGeometry x="350" y="320" width="20" height="20" as="geometry" />
        </mxCell>
        <mxCell id="IL5D-cO0ejNmLXXA79S_-86" value="&lt;font style=&quot;font-size: 12px; font-weight: normal;&quot;&gt;Hantera cykelinformation&lt;/font&gt;" style="text;strokeColor=none;fillColor=none;html=1;fontSize=24;fontStyle=1;verticalAlign=middle;align=center;" parent="1" vertex="1">
          <mxGeometry x="315" y="630" width="170" height="40" as="geometry" />
        </mxCell>
        <mxCell id="IL5D-cO0ejNmLXXA79S_-93" value="&lt;p style=&quot;line-height: 30%;&quot;&gt;&lt;span style=&quot;font-weight: normal;&quot;&gt;&lt;font style=&quot;font-size: 12px;&quot;&gt;Administratör: Hantera&lt;br&gt;cyklar, kunder, laddstationer&lt;/font&gt;&lt;/span&gt;&lt;/p&gt;" style="text;strokeColor=none;fillColor=none;html=1;fontSize=24;fontStyle=1;verticalAlign=middle;align=center;" parent="1" vertex="1">
          <mxGeometry x="200" y="250" width="160" height="40" as="geometry" />
        </mxCell>
        <mxCell id="IL5D-cO0ejNmLXXA79S_-95" value="&lt;span style=&quot;font-weight: normal;&quot;&gt;&lt;font style=&quot;font-size: 12px;&quot;&gt;Kund: Hantera konto&lt;br&gt;&lt;/font&gt;&lt;/span&gt;" style="text;strokeColor=none;fillColor=none;html=1;fontSize=24;fontStyle=1;verticalAlign=middle;align=center;" parent="1" vertex="1">
          <mxGeometry x="360" y="290" width="130" height="30" as="geometry" />
        </mxCell>
        <mxCell id="IL5D-cO0ejNmLXXA79S_-100" style="edgeStyle=orthogonalEdgeStyle;rounded=0;orthogonalLoop=1;jettySize=auto;html=1;entryX=-0.033;entryY=0.733;entryDx=0;entryDy=0;entryPerimeter=0;exitX=1;exitY=0.5;exitDx=0;exitDy=0;endArrow=none;endFill=0;" parent="1" source="IL5D-cO0ejNmLXXA79S_-73" target="IL5D-cO0ejNmLXXA79S_-79" edge="1">
          <mxGeometry relative="1" as="geometry">
            <Array as="points">
              <mxPoint x="400" y="545" />
              <mxPoint x="400" y="637" />
            </Array>
          </mxGeometry>
        </mxCell>
        <mxCell id="IL5D-cO0ejNmLXXA79S_-101" value="" style="shape=providedRequiredInterface;html=1;verticalLabelPosition=bottom;sketch=0;direction=north;" parent="1" vertex="1">
          <mxGeometry x="390" y="585" width="20" height="20" as="geometry" />
        </mxCell>
      </root>
    </mxGraphModel>
  </diagram>
</mxfile>
